<?xml version="1.0" encoding="utf-8"?>

<!-- Uploaded to: SVG Repo, www.svgrepo.com, Generator: SVG Repo Mixer Tools -->
<svg version="1.1" id="Icons" xmlns="http://www.w3.org/2000/svg" xmlns:xlink="http://www.w3.org/1999/xlink" 
	 viewBox="0 0 32 32" xml:space="preserve">
<style type="text/css">
	.st0{fill:none;stroke:#000000;stroke-width:2;stroke-linecap:round;stroke-linejoin:round;stroke-miterlimit:10;}
</style>
<path class="st0" d="M21,23H11c-1.1,0-2-0.9-2-2V11c0-1.1,0.9-2,2-2h10c1.1,0,2,0.9,2,2v10C23,22.1,22.1,23,21,23z"/>
<path class="st0" d="M21,9H11l0.7-4.3c0.2-1,1-1.7,2-1.7h4.6c1,0,1.8,0.7,2,1.7L21,9z"/>
<path class="st0" d="M18.3,29h-4.6c-1,0-1.8-0.7-2-1.7L11,23h10l-0.7,4.3C20.1,28.3,19.3,29,18.3,29z"/>
<path class="st0" d="M19,15c0,2.7-3,5-3,5s-3-2.3-3-5c0-1.7,1.3-3,3-3S19,13.3,19,15z"/>
</svg>